<?xml version="1.0" encoding="utf-8"?>
<!-- Generator: Adobe Illustrator 23.0.1, SVG Export Plug-In . SVG Version: 6.00 Build 0)  -->
<svg version="1.1" id="Layer_1" xmlns="http://www.w3.org/2000/svg" xmlns:xlink="http://www.w3.org/1999/xlink" x="0px" y="0px"
	 viewBox="0 0 612 792" style="enable-background:new 0 0 612 792;" xml:space="preserve">
<style type="text/css">
	.st0{fill:#0FA24A;stroke:#FFFFFF;stroke-miterlimit:10;}
	.st1{fill:#FFFFFF;}
</style>
<circle class="st0" cx="225.42" cy="492.96" r="87.36"/>
<g>
	<path class="st1" d="M192.54,466.86v-11.6c0-1.6,1.23-2.9,2.74-2.9c1.51,0,2.74,1.3,2.74,2.9v11.6c0,1.6-1.23,2.9-2.74,2.9
		C193.76,469.76,192.54,468.46,192.54,466.86L192.54,466.86z M239.12,469.76c1.51,0,2.74-1.3,2.74-2.9v-11.6
		c0-1.6-1.23-2.9-2.74-2.9s-2.74,1.3-2.74,2.9v11.6C236.38,468.46,237.6,469.76,239.12,469.76L239.12,469.76z M269.26,521.97
		c0,12.81-9.82,23.2-21.92,23.2c-12.1,0-21.92-10.39-21.92-23.2c0-12.81,9.82-23.2,21.92-23.2
		C259.44,498.76,269.26,509.15,269.26,521.97L269.26,521.97z M263.78,521.97c0-9.6-7.37-17.4-16.44-17.4
		c-9.06,0-16.44,7.81-16.44,17.4c0,9.6,7.38,17.4,16.44,17.4C256.4,539.37,263.78,531.56,263.78,521.97L263.78,521.97z
		 M203.5,487.16h-10.96v11.6h10.96V487.16z M192.54,516.17h10.96v-11.6h-10.96V516.17z M208.98,498.76h10.96v-11.6h-10.96V498.76z
		 M208.98,516.17h10.96v-11.6h-10.96V516.17z M187.06,521.39v-40.03h60.28v11.6h5.48v-22.62c0-3.52-2.66-6.38-5.94-6.38h-2.29v2.9
		c0,3.2-2.46,5.8-5.48,5.8c-3.02,0-5.48-2.61-5.48-5.8v-2.9h-32.88v2.9c0,3.2-2.46,5.8-5.48,5.8c-3.02,0-5.48-2.61-5.48-5.8v-2.9
		h-2.28c-3.28,0-5.94,2.86-5.94,6.38v51.05c0,3.51,2.66,6.38,5.94,6.38h32.42v-5.8h-32.42C187.27,521.97,187.06,521.7,187.06,521.39
		L187.06,521.39z M236.38,498.76v-11.6h-10.96v11.6H236.38z M255.56,521.97h-8.22v-8.7c0-1.6-1.22-2.9-2.74-2.9
		c-1.51,0-2.74,1.3-2.74,2.9v11.6c0,1.6,1.22,2.9,2.74,2.9h10.96c1.51,0,2.74-1.3,2.74-2.9
		C258.3,523.26,257.07,521.97,255.56,521.97L255.56,521.97z M255.56,521.97"/>
</g>
</svg>
